<?xml version="1.0" encoding="iso-8859-1"?>
<!-- Generator: Adobe Illustrator 16.0.0, SVG Export Plug-In . SVG Version: 6.00 Build 0)  -->
<!DOCTYPE svg PUBLIC "-//W3C//DTD SVG 1.1//EN" "http://www.w3.org/Graphics/SVG/1.1/DTD/svg11.dtd">
<svg version="1.1" id="Capa_1" xmlns="http://www.w3.org/2000/svg" xmlns:xlink="http://www.w3.org/1999/xlink" x="0px" y="0px"
	 width="445.367px" height="445.368px" viewBox="0 0 445.367 445.368" style="enable-background:new 0 0 445.367 445.368;"
	 xml:space="preserve">
<g>
	<path d="M312.373,46.524H132.999C59.663,46.524,0,106.186,0,179.522c0,73.338,59.663,133,132.999,133h63.564v70.838
		c0,6.283,3.753,11.898,9.561,14.306c1.888,0.78,3.884,1.178,5.919,1.178c4.138,0,8.013-1.596,10.912-4.5l82.391-81.82h7.025
		c73.336,0,132.996-59.661,132.996-133C445.369,106.186,385.707,46.524,312.373,46.524z M238.105,78.626
		c11.227,0,20.356,9.132,20.356,20.357c0,11.225-9.131,20.357-20.356,20.357s-20.357-9.133-20.357-20.357
		C217.748,87.758,226.88,78.626,238.105,78.626z M258.876,249.327c0,10.2-8.299,18.5-18.5,18.5c-10.2,0-18.5-8.3-18.5-18.5v-87.468
		h-19.385c-8.836,0-16-7.163-16-16c0-8.836,7.164-16,16-16h37.229c0.219-0.008,0.435-0.033,0.654-0.033
		c10.201,0,18.5,8.299,18.5,18.5L258.876,249.327L258.876,249.327z"/>
</g>
<g>
</g>
<g>
</g>
<g>
</g>
<g>
</g>
<g>
</g>
<g>
</g>
<g>
</g>
<g>
</g>
<g>
</g>
<g>
</g>
<g>
</g>
<g>
</g>
<g>
</g>
<g>
</g>
<g>
</g>
</svg>
