<?xml version="1.0" encoding="UTF-8" standalone="no"?>
<!-- Created with Inkscape (http://www.inkscape.org/) -->

<svg
   xmlns:dc="http://purl.org/dc/elements/1.1/"
   xmlns:cc="http://creativecommons.org/ns#"
   xmlns:rdf="http://www.w3.org/1999/02/22-rdf-syntax-ns#"
   xmlns:svg="http://www.w3.org/2000/svg"
   xmlns="http://www.w3.org/2000/svg"
   version="1.1"
   width="249pt"
   height="249pt"
   viewBox="0 0 249 249"
   id="svg3871">
  <metadata
     id="metadata3885">
    <rdf:RDF>
      <cc:Work
         rdf:about="">
        <dc:format>image/svg+xml</dc:format>
        <dc:type
           rdf:resource="http://purl.org/dc/dcmitype/StillImage" />
        <dc:title></dc:title>
      </cc:Work>
    </rdf:RDF>
  </metadata>
    <path
       d="M 217.90625,23.5625 C 208.80468,23.51349 199.59999,24.1788 190.6875,23.75 153.13173,24.059965 115.46972,23.127823 77.96875,24.21875 50.706219,28.812059 27.636644,52.282866 24.03125,79.78125 23.38196,125.2204 23.96177,170.72259 23.75,216.1875 c -3.541474,33.21468 23.045475,65.55039 55.90625,69.78125 45.48311,0.68721 91.02079,0.0588 136.53125,0.28125 33.59594,3.65514 66.33817,-23.72414 69.84375,-57.0625 0.51824,-45.29884 0.0424,-90.64854 0.21875,-135.96875 2.43001,-25.340151 -12.51743,-50.381769 -34.71875,-62.1875 -10.42265,-6.169944 -21.92299,-7.405741 -33.625,-7.46875 z M 106.5,89.4375 c 19.75299,-0.321279 38.2743,12.87359 45.15625,31.4375 3.73816,16.72243 7.09909,-2.01017 11.8125,-8.59375 10.33204,-18.275029 33.00901,-26.10072 52.9375,-21.5625 22.09694,4.018421 36.24412,26.56795 35.125,48.1875 0.99826,17.94172 -7.53098,36.2324 -23.71875,44.875 -23.14884,13.88853 -51.906,21.25989 -68.0625,44.5625 -3.47186,8.65729 -5.18174,7.37916 -8.9375,-0.28125 -15.77105,-22.31425 -43.04613,-30.25133 -65.875,-42.875 -15.078805,-7.82225 -25.723234,-23.40828 -25.59375,-40.65625 -2.227791,-20.5745 7.029088,-43.78959 27.46875,-51.5 4.984234,-2.047248 10.350176,-3.071652 15.71875,-3.34375 1.32459,-0.143938 2.65188,-0.228581 3.96875,-0.25 z"
       transform="scale(0.8,0.8)"
       id="path3879"
       style="fill:#c21010" />
</svg>
