<?xml version="1.0" encoding="UTF-8" standalone="no"?>
<!-- Created with Inkscape (http://www.inkscape.org/) -->

<svg
   xmlns:dc="http://purl.org/dc/elements/1.1/"
   xmlns:cc="http://creativecommons.org/ns#"
   xmlns:rdf="http://www.w3.org/1999/02/22-rdf-syntax-ns#"
   xmlns:svg="http://www.w3.org/2000/svg"
   xmlns="http://www.w3.org/2000/svg"
   version="1.1"
   width="512pt"
   height="512pt"
   viewBox="0 0 512 512"
   id="svg3810">
  <metadata
     id="metadata3822">
    <rdf:RDF>
      <cc:Work
         rdf:about="">
        <dc:format>image/svg+xml</dc:format>
        <dc:type
           rdf:resource="http://purl.org/dc/dcmitype/StillImage" />
        <dc:title></dc:title>
      </cc:Work>
    </rdf:RDF>
  </metadata>
<path
   d="m 385.85,64.375 c -84.76758,11.666171 -170.7429,5.483036 -256.00687,5.597187 -21.7027,-10.608485 -37.68597,21.553133 -9.7902,23.508381 29.28656,-0.426536 31.2833,33.486582 32.57707,55.331302 0.97068,60.64736 -2.68527,121.30055 0.44022,181.93755 -0.65408,28.44952 4.19866,60.72662 -13.37022,85.06433 -13.23634,5.62655 -57.439848,6.34473 -37.78908,28.48121 23.71934,4.86054 48.00297,-3.75079 72.08814,-1.33699 55.57232,0.84158 111.12336,0.28779 166.66155,-0.3197 20.61057,-5.39165 45.62598,14.31863 62.38939,-0.58823 0.47479,-28.15766 6.17022,-55.60142 13.04969,-83.03562 -1.39379,-28.00411 -37.01308,-18.64184 -29.0934,7.51871 1.12014,31.89718 -35.01515,42.77322 -60.63457,46.20504 -36.68509,4.06377 -75.6499,10.34107 -111.41782,-1.92469 -22.83238,-11.13009 -17.01143,-40.87698 -16.6539,-61.63844 3.01024,-28.59608 -4.4927,-58.24619 4.85,-86.075 37.0679,2.41088 75.14474,-11.17626 111.32481,0.77607 22.56026,2.73959 18.03256,57.23629 42.92519,37.47393 2.14918,-23.18338 -4.46906,-46.73347 -1.91012,-70.2745 7.64617,-16.09509 -1.51338,-63.67401 -19.54515,-32.78576 2.80788,35.2519 -33.90989,40.10217 -60.99473,38.64276 -23.91766,-2.53129 -55.81793,2.81981 -74.38047,-9.31875 -2.57463,-38.72384 -3.27546,-77.986 0.94045,-116.52703 26.46988,-19.120984 62.15045,-12.271872 92.91952,-12.55508 25.29348,3.55869 59.5356,0.125912 75.92236,23.30992 -3.38063,16.28812 16.06328,46.73453 24.07314,18.73344 -2.57076,-23.8999 0.60476,-47.660128 1.93672,-70.950313 C 393.99255,66.311306 389.92197,64.304586 385.85,64.375 z"
   id="path3816" />
</svg>
