<?xml version="1.0" encoding="UTF-8" standalone="no"?>
<!-- Generator: Adobe Illustrator 16.0.0, SVG Export Plug-In . SVG Version: 6.00 Build 0)  -->
<!DOCTYPE svg  PUBLIC '-//W3C//DTD SVG 1.1//EN'  'http://www.w3.org/Graphics/SVG/1.1/DTD/svg11.dtd'>
<svg id="Capa_1" style="enable-background:new 0 0 441.732 441.732" xmlns="http://www.w3.org/2000/svg" xml:space="preserve" height="441.73px" viewBox="0 0 441.732 441.732" width="441.73px" version="1.1" y="0px" x="0px" xmlns:xlink="http://www.w3.org/1999/xlink">
		<polygon points="342.29 32.594 314.18 50.799 311.62 65.33 339.73 47.125"/>
		<polygon points="337.03 62.381 308.93 80.581 305.98 97.298 334.09 79.092"/>
		<polygon points="347.29 4.257 323.15 0 316.88 35.541 344.98 17.34"/>
		<path d="m267.25 155.94c-8.377 0-15.174 6.791-15.174 15.173 0 8.389 6.797 15.18 15.174 15.18 0.389 0 0.762-0.09 1.135-0.112 3.661 26.969-24.635 51.625-51.435 53.078-30.184 1.629-42.702-27.605-45.202-53.397 6.709-1.567 11.712-7.56 11.712-14.742 0-8.378-6.793-15.174-15.174-15.174-8.377 0-15.173 6.791-15.173 15.174 0 4.646 2.128 8.747 5.416 11.533 2.22 35.485 22.442 74.765 64.052 69.129 34.83-4.717 65.965-38.285 57.522-72.662 1.457-2.332 2.325-5.054 2.325-8 0.01-8.39-6.79-15.18-15.17-15.18z"/>
		<path d="m382.41 426.77c-11.159-43.923-44.178-194.69-0.588-290.6 0.046-0.093 0.052-0.194 0.093-0.29 0.235-0.562 0.407-1.127 0.533-1.715 0.032-0.145 0.08-0.285 0.107-0.425 0.12-0.728 0.158-1.469 0.12-2.207-0.005-0.135-0.05-0.271-0.06-0.4-0.065-0.593-0.174-1.182-0.355-1.765-0.061-0.208-0.136-0.407-0.214-0.61-0.191-0.509-0.431-1.004-0.711-1.485-0.064-0.118-0.098-0.257-0.182-0.386-0.041-0.074-0.112-0.118-0.153-0.192-0.08-0.112-0.126-0.235-0.206-0.347l-31.349-42.148c-1.11-1.502-2.648-2.567-4.347-3.215 3.613 8.758 3.007 19.403-1.825 27.519l10.356 13.929h-43.74l18.676-12.099 2.825-15.986-28.104 18.206-1.751 9.88h-29.452l14.392-22.696 3.277-5.321-22.199-14.131-53.426-33.877-16.085 25.366 15.609 50.665h-8.073l-32.71-106.14-85.683 26.397 11.575 37.588h-8.981c-3.648 0-6.994 2.038-8.656 5.289l-21.613 42.148c-0.096 0.187-0.134 0.38-0.225 0.572-0.112 0.246-0.208 0.493-0.294 0.755-0.159 0.466-0.277 0.936-0.356 1.415-0.043 0.222-0.093 0.441-0.118 0.67-0.06 0.635-0.071 1.262-0.011 1.888 0.007 0.084-0.005 0.164 0 0.249 0.086 0.706 0.261 1.406 0.495 2.082 0.023 0.058 0.023 0.113 0.039 0.17 46.047 125.29 13.634 255.43 2.599 292.33-0.631 2.122-1.807 6.085 1.166 10.024 1.834 2.435 4.72 3.863 7.762 3.863h0.128c2.638-0.033 4.566-0.939 6-2.209h291.26c1.385 1.021 3.192 1.732 5.565 1.732 3.006 0 5.841-1.388 7.685-3.759 2.95-3.77 2.05-7.3 1.19-10.72zm-286.66-327.04h9.028l6.99 22.695h-27.668l11.65-22.698zm-11.706 320.34c12.849-48.63 35.138-163.79-2.197-278.18h276.61c-34.768 93.836-10.332 224.64 2.278 278.18h-276.69z"/>
</svg>
